<svg xmlns="http://www.w3.org/2000/svg" viewBox="0 0 512 512"><clipPath id="c"><rect width="512" height="512" rx="104"/></clipPath><g clip-path="url(#c)"><defs><linearGradient id="g" x1="0" y1="0" x2="1" y2="1"><stop offset="0" stop-color="#061C3F"/><stop offset=".6" stop-color="#0A2D5E"/><stop offset="1" stop-color="#10407f"/></linearGradient>
 <linearGradient id="w" x1="0" y1="1" x2="0" y2="0"><stop offset="0" stop-color="#fff" stop-opacity=".28"/><stop offset="1" stop-color="#fff" stop-opacity="0"/></linearGradient>
 <linearGradient id="r" x1="0" y1="1" x2="0" y2="0"><stop offset="0" stop-color="#ff1f3d" stop-opacity=".95"/><stop offset="1" stop-color="#ff1f3d" stop-opacity="0"/></linearGradient></defs>
 <rect width="512" height="512" fill="url(#g)"/><polygon points="90,512 512,512 512,0" fill="url(#w)"/><polygon points="210,512 300,512 512,77 512,26" fill="url(#r)"/><polygon points="333,512 384,512 512,192 512,160" fill="url(#w)"/><g transform="translate(46 140) scale(.8)"><g fill="#fff" stroke="#fff" stroke-width="10" stroke-linejoin="round" transform="translate(-28 -346) scale(.917)"><polygon points="40,522 40,512 266,358 296,361 296,371 176,522"/><polygon points="328,366 332,366 368,518 268,518"/><polygon points="396,452 484,446 582,515 456,522"/></g></g></g></svg>